<svg width="201" height="43" viewBox="0 0 201 43" fill="none" xmlns="http://www.w3.org/2000/svg">
<g filter="url(#filter0_d)">
<path d="M4.688 35V0.439999H10.88L24.272 16.376L37.616 0.439999H43.856V35H38.624V7.4L24.272 24.488L9.872 7.4V35H4.688ZM48.3153 35V6.68C48.3153 4.952 48.9233 3.48 50.1393 2.264C51.3553 1.048 52.8273 0.439999 54.5553 0.439999H76.5873C78.3153 0.439999 79.7873 1.048 81.0033 2.264C82.2513 3.48 82.8753 4.952 82.8753 6.68V35H77.6433V22.904H53.4993V35H48.3153ZM53.4993 17.72H77.6433V7.4C77.6433 6.696 77.5153 6.232 77.2593 6.008C77.0353 5.752 76.5713 5.624 75.8673 5.624H55.2753C54.5713 5.624 54.0913 5.752 53.8353 6.008C53.6113 6.232 53.4993 6.696 53.4993 7.4V17.72ZM87.2963 35V0.487998H115.568C117.296 0.487998 118.768 1.112 119.984 2.36C121.232 3.576 121.856 5.032 121.856 6.728V16.424C121.856 18.12 121.232 19.592 119.984 20.84C118.768 22.056 117.296 22.664 115.568 22.664H112.112L121.712 34.04V35H115.664L105.344 22.664H92.4803V35H87.2963ZM94.2563 17.432H114.848C115.584 17.432 116.064 17.32 116.288 17.096C116.512 16.872 116.624 16.408 116.624 15.704V7.448C116.624 6.744 116.512 6.28 116.288 6.056C116.064 5.8 115.584 5.672 114.848 5.672H94.2563C93.5523 5.672 93.0723 5.8 92.8163 6.056C92.5923 6.28 92.4803 6.744 92.4803 7.448V15.704C92.4803 16.408 92.5923 16.872 92.8163 17.096C93.0723 17.32 93.5523 17.432 94.2563 17.432ZM132.194 35C130.466 35 128.994 34.392 127.778 33.176C126.562 31.96 125.954 30.488 125.954 28.76V6.68C125.954 4.952 126.562 3.48 127.778 2.264C128.994 1.048 130.466 0.439999 132.194 0.439999H160.418V5.624H132.914C132.21 5.624 131.73 5.752 131.474 6.008C131.25 6.232 131.138 6.696 131.138 7.4V28.04C131.138 28.744 131.25 29.224 131.474 29.48C131.73 29.704 132.21 29.816 132.914 29.816H160.418V35H132.194ZM164.518 35V0.439999H196.198V5.624H169.75V15.08H191.014V20.312H169.75V29.816H196.198V35H164.518Z" fill="white"/>
</g>
<defs>
<filter id="filter0_d" x="0.687988" y="0.440002" width="199.51" height="42.56" filterUnits="userSpaceOnUse" color-interpolation-filters="sRGB">
<feFlood flood-opacity="0" result="BackgroundImageFix"/>
<feColorMatrix in="SourceAlpha" type="matrix" values="0 0 0 0 0 0 0 0 0 0 0 0 0 0 0 0 0 0 127 0" result="hardAlpha"/>
<feOffset dy="4"/>
<feGaussianBlur stdDeviation="2"/>
<feColorMatrix type="matrix" values="0 0 0 0 0 0 0 0 0 0 0 0 0 0 0 0 0 0 0.25 0"/>
<feBlend mode="normal" in2="BackgroundImageFix" result="effect1_dropShadow"/>
<feBlend mode="normal" in="SourceGraphic" in2="effect1_dropShadow" result="shape"/>
</filter>
</defs>
</svg>
